<?xml version="1.0" encoding="UTF-8"?>
<svg width="49.768mm" height="10.276mm" version="1.1" viewBox="0 0 49.768 10.276" xmlns="http://www.w3.org/2000/svg" xmlns:cc="http://creativecommons.org/ns#" xmlns:dc="http://purl.org/dc/elements/1.1/" xmlns:rdf="http://www.w3.org/1999/02/22-rdf-syntax-ns#">
 <title>Gallifreyo title</title>
 <metadata>
  <rdf:RDF>
   <cc:Work rdf:about="">
    <dc:format>image/svg+xml</dc:format>
    <dc:type rdf:resource="http://purl.org/dc/dcmitype/StillImage"/>
    <dc:title>Gallifreyo title</dc:title>
    <cc:license rdf:resource="http://creativecommons.org/licenses/by/4.0/"/>
    <dc:date>2020-07-20</dc:date>
    <dc:creator>
     <cc:Agent>
      <dc:title>Ross Williams</dc:title>
     </cc:Agent>
    </dc:creator>
   </cc:Work>
   <cc:License rdf:about="http://creativecommons.org/licenses/by/4.0/">
    <cc:permits rdf:resource="http://creativecommons.org/ns#Reproduction"/>
    <cc:permits rdf:resource="http://creativecommons.org/ns#Distribution"/>
    <cc:requires rdf:resource="http://creativecommons.org/ns#Notice"/>
    <cc:requires rdf:resource="http://creativecommons.org/ns#Attribution"/>
    <cc:permits rdf:resource="http://creativecommons.org/ns#DerivativeWorks"/>
   </cc:License>
  </rdf:RDF>
 </metadata>
 <g transform="translate(-10.124 -25.399)">
  <g style="shape-inside:url(#rect835);white-space:pre" aria-label="Gallifreyo">
   <path d="m13.733 33.283q-0.74083 0-1.397-0.27517-0.65616-0.28575-1.1536-0.79375-0.49742-0.51858-0.78316-1.2171-0.27517-0.70908-0.27517-1.5769 0-0.78316 0.28575-1.4605 0.28575-0.67733 0.79375-1.1959 0.508-0.51858 1.1853-0.80433 0.68791-0.29633 1.4817-0.29633 1.0372 0 1.8309 0.4445 0.79375 0.4445 1.1747 1.1959l-1.2912 0.97366q-0.254-0.49742-0.74083-0.78316-0.47625-0.28575-1.0372-0.28575-0.42333 0-0.78316 0.17992-0.34925 0.16933-0.61383 0.48683-0.254 0.30692-0.39158 0.71966-0.13758 0.41275-0.13758 0.889 0 0.48683 0.14817 0.89958 0.14817 0.41275 0.41275 0.71966 0.26458 0.29633 0.62442 0.46567 0.37042 0.16933 0.81491 0.16933 0.53975 0 1.0266-0.26458 0.49742-0.27517 0.91016-0.80433v1.7145q-0.89958 0.89958-2.0849 0.89958zm1.9791-2.7199h-1.4605v-1.2594h2.8998v3.9264h-1.4393z"/>
   <path d="m17.812 31.569q0-0.55033 0.30692-0.96308 0.30692-0.41275 0.84666-0.64558 0.53975-0.24342 1.2382-0.24342 0.33867 0 0.66675 0.0635 0.32808 0.05292 0.5715 0.15875v-0.24342q0-0.45508-0.27516-0.6985-0.27517-0.24342-0.83608-0.24342-0.46566 0-0.87841 0.15875-0.40216 0.15875-0.85725 0.45508l-0.508-1.0795q0.55033-0.35983 1.143-0.53975 0.60325-0.17992 1.27-0.17992 1.2488 0 1.9367 0.60325 0.6985 0.59266 0.6985 1.7251v1.4499q0 0.254 0.07408 0.35983 0.08467 0.09525 0.28575 0.11642v1.4076q-0.21167 0.04233-0.40217 0.0635-0.17992 0.02117-0.3175 0.02117-0.47625 0-0.73025-0.1905-0.24342-0.1905-0.30692-0.51858l-0.03175-0.24342q-0.37042 0.47625-0.889 0.73025-0.508 0.24342-1.0689 0.24342-0.55033 0-0.99483-0.23283-0.43392-0.23283-0.68791-0.635-0.254-0.40216-0.254-0.89958zm3.3655 0.21167q0.11642-0.09525 0.1905-0.21167 0.07408-0.11642 0.07408-0.22225v-0.49742q-0.21167-0.08467-0.47625-0.127-0.254-0.05292-0.47625-0.05292-0.46566 0-0.77258 0.21167-0.30692 0.20108-0.30692 0.53975 0 0.1905 0.10583 0.34925 0.10583 0.15875 0.28575 0.254 0.1905 0.09525 0.4445 0.09525 0.254 0 0.508-0.09525t0.42333-0.24342z"/>
   <path d="m24.342 25.505h1.6933v5.7467q0 0.34925 0.127 0.49742 0.127 0.14817 0.35983 0.14817 0.15875 0 0.3175-0.04233 0.16933-0.05292 0.29633-0.11642l0.22225 1.27q-0.3175 0.14817-0.73025 0.23283-0.41275 0.08467-0.77258 0.08467-0.71966 0-1.1218-0.381-0.39158-0.39158-0.39158-1.1007z"/>
   <path d="m27.897 25.505h1.6933v5.7467q0 0.34925 0.127 0.49742 0.127 0.14817 0.35983 0.14817 0.15875 0 0.3175-0.04233 0.16933-0.05292 0.29633-0.11642l0.22225 1.27q-0.3175 0.14817-0.73025 0.23283-0.41275 0.08467-0.77258 0.08467-0.71966 0-1.1218-0.381-0.39158-0.39158-0.39158-1.1007z"/>
   <path d="m31.473 33.23v-5.5562h1.6933v5.5562zm0-6.1912v-1.5346h1.6933v1.5346z"/>
   <path d="m34.686 33.23v-3.8206h-0.70908v-1.2806h0.70908v-0.45508q0-0.6985 0.23283-1.2065 0.24342-0.508 0.67733-0.78316 0.4445-0.28575 1.0266-0.28575 0.35983 0 0.71966 0.08467t0.73025 0.24342l-0.30692 1.27q-0.15875-0.07408-0.37042-0.11642-0.21167-0.05292-0.39158-0.05292-0.30692 0-0.46566 0.20108-0.15875 0.1905-0.15875 0.58208v0.51858h1.2912v1.2806h-1.2912v3.8206z"/>
   <path d="m41.922 29.124q-0.61383 0-1.1112 0.20108-0.49742 0.1905-0.71966 0.5715v3.3337h-1.6933v-5.5562h1.5557v1.1218q0.28575-0.56092 0.74083-0.87841t0.9525-0.32808q0.11642 0 0.16933 0 0.0635 0 0.10583 0.01058z"/>
   <path d="m45.023 33.336q-0.70908 0-1.2594-0.22225-0.55033-0.23283-0.94191-0.62441-0.381-0.39158-0.58208-0.89958-0.20108-0.51858-0.20108-1.0795 0-0.80433 0.34925-1.4605 0.35983-0.66675 1.0266-1.0689 0.66675-0.41275 1.6087-0.41275 0.94191 0 1.5981 0.40217 0.66675 0.40216 1.016 1.0583 0.34925 0.64558 0.34925 1.4076 0 0.14817-0.02117 0.29633-0.01058 0.13758-0.02117 0.24342h-4.1063q0.03175 0.37042 0.20108 0.62442 0.17992 0.254 0.45508 0.39158 0.27517 0.127 0.58208 0.127 0.381 0 0.70908-0.17992 0.33867-0.17992 0.46566-0.48683l1.4393 0.40217q-0.21167 0.43392-0.60325 0.77258-0.381 0.32808-0.91016 0.51858-0.51858 0.1905-1.1536 0.1905zm-1.2277-3.3972h2.413q-0.04233-0.34925-0.20108-0.60325-0.15875-0.26458-0.42333-0.40216-0.26458-0.14817-0.58208-0.14817-0.32808 0-0.59266 0.14817-0.254 0.13758-0.41275 0.40216-0.15875 0.254-0.20108 0.60325z"/>
   <path d="m48.652 34.066q0.21167 0.0635 0.39158 0.09525 0.1905 0.04233 0.33867 0.04233 0.20108 0 0.33867-0.09525 0.14817-0.08467 0.254-0.30692 0.10583-0.21167 0.1905-0.5715l-2.1167-5.5562h1.7462l1.2912 3.8206 1.1007-3.8206h1.5981l-2.1167 6.4558q-0.14817 0.45508-0.45508 0.80433t-0.74083 0.53975q-0.43392 0.20108-0.9525 0.20108-0.22225 0-0.43392-0.04233-0.21167-0.03175-0.43392-0.11642z"/>
   <path d="m56.919 33.336q-0.70908 0-1.27-0.23283-0.55033-0.23283-0.93133-0.635-0.381-0.40216-0.58208-0.92075-0.1905-0.51858-0.1905-1.0901 0-0.58208 0.1905-1.1007 0.20108-0.51858 0.58208-0.92075t0.93133-0.635q0.56092-0.23283 1.27-0.23283t1.2594 0.23283q0.55033 0.23283 0.93133 0.635t0.58208 0.92075q0.20108 0.51858 0.20108 1.1007 0 0.5715-0.20108 1.0901-0.20108 0.51858-0.58208 0.92075-0.381 0.40217-0.93133 0.635-0.55033 0.23283-1.2594 0.23283zm-1.2382-2.8787q0 0.43392 0.15875 0.762 0.16933 0.32808 0.4445 0.508t0.635 0.17992q0.34925 0 0.62442-0.17992 0.28575-0.1905 0.4445-0.51858 0.15875-0.32808 0.15875-0.75141 0-0.43392-0.15875-0.762-0.15875-0.32808-0.4445-0.508-0.27517-0.17992-0.62442-0.17992-0.35983 0-0.635 0.17992t-0.4445 0.508q-0.15875 0.32808-0.15875 0.762z"/>
  </g>
 </g>
</svg>
